<?xml version="1.0" encoding="UTF-8"?>
<svg id="_Слой_2" data-name="Слой 2" xmlns="http://www.w3.org/2000/svg" viewBox="0 0 501.22 486.02">
  <defs>
    <style>
      .cls-1 {
        fill: #000306;
      }
    </style>
  </defs>
  <path class="cls-1" d="m330.84,135.94c16.2-33.61,58.28-39.9,84.58-28.63,9.01,2.81,21.88,7.03,26.71,18.19,4.07,14.18,1.93,27.36-2.58,44.5-4.23,14.58-7.16,24.8-15.62,35.24-9.01,11.13-20.66,18.22-22.06,16.84-1.01-.99,3.94-5.73,8.9-17.03,5.91-15.14,14.87-48.19,10.45-58.26-1.73-5.56-6.48-15.44-16.26-20.13-36.81-17.23-52.08-6.19-74.13,9.28Z"/>
  <path class="cls-1" d="m391.54,252.22c-1.73-3.65,10-12.3,12.79-14.53,26.34-21.6,72.52-13.56,96.89,10.15-6.1,95.09-75.33,148.08-151.7,155.95-78.69,4.03-80.59,81.41-28.75,66.83,2.83-8.21-6.64-12.73-12.58-12.19-4.69-.15-7.03,1.27-7.74.19-.4-4.69,7.35-11.2,16.26-10.06,11.13,1.06,22.85,25.25,19.55,31.94-40.68,23.53-92.79-33.04-38.82-71.16,31.22-20.55,75.53-19.46,107.1-36.99,42.62-22.96,53.45-68.79,57.73-79.84,25.43-59.92-61.62-37.53-70.71-40.26Z"/>
  <path class="cls-1" d="m281.61,340.92c2.24,8.43,5.05,17.76-.96,26.82-4.04,7.01-20,18.75-18.66,28.25.35,4.24,3.01,8.26,4.59,8.03,1.64-.24,1.14-4.91,3.68-11.03,2.35-8.65,22.01-22.89,22.84-26.52,4.47-9.37-3.62-24.91-11.48-25.55Z"/>
  <path class="cls-1" d="m250.5,0c-18.23,15.57-64.12,88.21-62.69,111.18,4.4-4.5,43.67-51.79,62.8-63.83,19.14,12.05,58.4,59.33,62.8,63.83,1.43-22.97-44.45-95.62-62.69-111.18"/>
  <path class="cls-1" d="m170.39,135.94c-16.2-33.61-58.28-39.9-84.58-28.63-9.01,2.81-21.88,7.03-26.71,18.19-4.07,14.18-1.93,27.36,2.58,44.5,4.23,14.58,7.16,24.8,15.62,35.24,9.01,11.13,20.66,18.22,22.06,16.84,1.01-.99-3.94-5.73-8.9-17.03-5.91-15.14-14.87-48.19-10.45-58.26,1.73-5.56,6.48-15.44,16.26-20.13,36.81-17.23,52.08-6.19,74.13,9.28Z"/>
  <path class="cls-1" d="m109.68,252.22c1.73-3.65-10-12.3-12.79-14.53-26.34-21.6-72.52-13.56-96.89,10.15,6.1,95.09,75.33,148.08,151.7,155.95,78.69,4.03,80.59,81.41,28.75,66.83-2.83-8.21,6.64-12.73,12.58-12.19,4.69-.15,7.03,1.27,7.74.19.4-4.69-7.35-11.2-16.26-10.06-11.13,1.06-22.85,25.25-19.55,31.94,40.68,23.53,92.79-33.04,38.82-71.16-31.22-20.55-75.53-19.46-107.1-36.99-42.62-22.96-53.45-68.79-57.73-79.84-25.43-59.92,61.62-37.53,70.71-40.26Z"/>
  <path class="cls-1" d="m251.84,386.67c22.13-9.32,13.29-71.15-.23-79.35h-2c-13.52,8.2-22.36,70.03-.23,79.35.26.11.73.27,1.33.25.5-.02.9-.15,1.14-.25Z"/>
  <path class="cls-1" d="m219.61,340.92c-2.24,8.43-5.05,17.76.96,26.82,4.04,7.01,20,18.75,18.66,28.25-.35,4.24-3.01,8.26-4.59,8.03-1.64-.24-1.14-4.91-3.68-11.03-2.35-8.65-22.01-22.89-22.84-26.52-4.47-9.37,3.62-24.91,11.48-25.55Z"/>
  <path class="cls-1" d="m250.08,142.54c-22,30.69-68.49,53.7-79.5,86.45-20.9,59.7,12.75,118.63,52.64,168.77-89.21-48.37-98.87-161.21-61.16-214.45,23.48-29.98,74.66-59.11,88.18-97.03h.73c13.52,37.92,64.7,67.05,88.18,97.03,37.71,53.24,28.04,166.08-61.16,214.45,39.89-50.15,73.55-109.08,52.64-168.77-11.01-32.75-57.5-55.76-79.5-86.45"/>
</svg>